<?xml version="1.0" encoding="UTF-8"?>
<!DOCTYPE svg PUBLIC "-//W3C//DTD SVG 1.1//EN" "http://www.w3.org/Graphics/SVG/1.1/DTD/svg11.dtd">
<svg xmlns="http://www.w3.org/2000/svg" xml:space="preserve" width="324px" height="80px" version="1.1" style="shape-rendering:geometricPrecision; text-rendering:geometricPrecision; image-rendering:optimizeQuality; fill-rule:evenodd; clip-rule:evenodd"
viewBox="0 0 98333 24540"
 xmlns:xlink="http://www.w3.org/1999/xlink">
 <defs>
  <style type="text/css">
   <![CDATA[
    .fil1 {fill:#FEFEFE}
    .fil0 {fill:lime;fill-rule:nonzero}
    .fil2 {fill:white;fill-rule:nonzero}
   ]]>
  </style>
 </defs>
 <g id="Camada_x0020_1">
  <g id="_942555600">
   <polygon class="fil0" points="93938,6418 91866,6418 91866,4769 93938,4769 "/>
   <path class="fil0" d="M98333 17174l-2071 0 0 -12387 2071 0 0 12387zm-4143 0l-2071 0 0 -9535 2071 0 0 9535zm-20755 -5721l0 996 -873 0c-366,0 -660,23 -883,69 -223,46 -396,117 -518,215 -122,97 -206,226 -254,387 -47,160 -71,361 -71,601l0 1100c0,263 24,478 71,644 47,166 132,301 254,404 122,103 294,175 518,215 223,40 518,60 883,60l2295 0 0 -5653c0,-378 -24,-687 -71,-928 -47,-241 -132,-427 -254,-558 -122,-132 -294,-220 -518,-266 -223,-46 -518,-69 -883,-69l-2924 0 0 -1031 3655 0c609,0 1110,52 1503,155 393,103 707,272 944,507 237,235 399,538 487,911 88,372 132,822 132,1349l0 6615 -5097 0c-609,0 -1110,-49 -1503,-146 -393,-97 -707,-241 -944,-430 -237,-189 -399,-424 -487,-704 -88,-281 -132,-604 -132,-971l0 -1220c0,-367 44,-690 132,-971 88,-281 250,-515 487,-704 237,-189 552,-332 944,-430 393,-97 894,-146 1503,-146l1604 0zm-9951 -893c0,-527 44,-976 132,-1349 88,-372 250,-676 487,-911 237,-235 552,-404 944,-507 393,-103 894,-155 1503,-155l2112 0 0 1031 -1381 0c-366,0 -660,23 -883,69 -223,46 -396,135 -518,266 -122,132 -206,318 -254,558 -47,241 -71,550 -71,928l0 6683 -2071 0 0 -6615zm-1422 3333c0,1077 -264,1893 -792,2448 -528,556 -1388,833 -2579,833l-5280 0 0 -12044 5260 0c1151,0 1966,275 2447,825 481,550 721,1329 721,2337 0,470 -41,859 -122,1168 -81,309 -190,564 -325,765 -135,200 -294,364 -477,490 -183,126 -382,229 -599,309 244,69 470,172 680,309 210,137 393,321 548,550 156,229 281,507 376,833 95,326 142,719 142,1177zm-2153 34c0,-859 -112,-1472 -335,-1838 -223,-367 -633,-550 -1229,-550l-1929 0 0 -1014 1929 0c582,0 961,-160 1137,-481 176,-321 264,-853 264,-1598 0,-848 -142,-1440 -426,-1778 -284,-338 -663,-507 -1137,-507l-2640 0 0 9982 2640 0c514,0 931,-163 1249,-490 318,-326 477,-902 477,-1727zm-51930 -7766l-2924 0 0 11013 -2132 0 0 -11013 -2924 0 0 -1031 7981 0 0 1031zm4979 1478c609,0 1110,52 1503,155 393,103 707,272 944,507 237,235 399,538 487,911 88,372 132,822 132,1349l0 3694c0,538 -44,991 -132,1357 -88,367 -250,667 -487,902 -237,235 -552,404 -944,507 -393,103 -894,155 -1503,155l-2721 0c-609,0 -1110,-52 -1503,-155 -393,-103 -707,-272 -944,-507 -237,-235 -399,-535 -487,-902 -88,-367 -132,-819 -132,-1357l0 -3694c0,-527 44,-976 132,-1349 88,-372 250,-676 487,-911 237,-235 552,-404 944,-507 393,-103 894,-155 1503,-155l2721 0zm-3716 6683c0,378 24,687 71,928 47,241 132,427 254,558 122,132 294,220 518,266 223,46 518,69 883,69l1259 0c366,0 660,-23 883,-69 223,-46 396,-135 518,-266 122,-132 206,-318 254,-558 47,-241 71,-550 71,-928l0 -3831c0,-378 -24,-687 -71,-928 -47,-241 -132,-427 -254,-558 -122,-132 -294,-220 -518,-266 -223,-46 -518,-69 -883,-69l-1259 0c-366,0 -660,23 -883,69 -223,46 -396,135 -518,266 -122,132 -206,318 -254,558 -47,241 -71,550 -71,928l0 3831zm25445 1821l0 -8505 2071 0 0 9535 -5463 0c-609,0 -1110,-52 -1503,-155 -393,-103 -707,-272 -944,-507 -237,-235 -399,-535 -487,-902 -88,-367 -132,-819 -132,-1357l0 -6615 2071 0 0 6683c0,378 24,687 71,928 47,241 132,427 254,558 122,132 294,220 518,266 223,46 518,69 883,69l2660 0zm7433 -2955l0 -996 1158 0c366,0 660,-23 883,-69 223,-46 396,-117 518,-215 122,-97 206,-226 254,-387 47,-160 71,-361 71,-601l0 -928c0,-252 -24,-464 -71,-636 -47,-172 -132,-309 -254,-412 -122,-103 -294,-175 -518,-215 -223,-40 -518,-60 -883,-60l-853 0c-366,0 -660,23 -883,69 -223,46 -396,135 -518,266 -122,132 -206,318 -254,558 -47,241 -71,550 -71,928l0 3831c0,378 24,687 71,928 47,241 132,427 254,558 122,132 294,220 518,266 223,46 518,69 883,69l3838 0 0 1031 -4569 0c-609,0 -1110,-52 -1503,-155 -393,-103 -707,-272 -944,-507 -237,-235 -399,-535 -487,-902 -88,-367 -132,-819 -132,-1357l0 -3694c0,-527 44,-976 132,-1349 88,-372 250,-676 487,-911 237,-235 552,-404 944,-507 393,-103 894,-155 1503,-155l2315 0c609,0 1110,49 1503,146 393,97 707,241 944,430 237,189 399,424 487,704 88,281 132,604 132,971l0 1048c0,367 -44,690 -132,971 -88,281 -250,515 -487,704 -237,189 -552,332 -944,430 -393,97 -894,146 -1503,146l-1889 0zm-19028 2955l0 1031 -2295 0c-609,0 -1110,-52 -1503,-155 -393,-103 -707,-272 -944,-507 -237,-235 -399,-535 -487,-902 -88,-367 -132,-819 -132,-1357l0 -3694c0,-527 44,-976 132,-1349 88,-372 250,-676 487,-911 237,-235 552,-404 944,-507 393,-103 894,-155 1503,-155l5483 0 0 13446 -2071 0 0 -12415 -2681 0c-366,0 -660,23 -883,69 -223,46 -396,135 -518,266 -122,132 -206,318 -254,558 -47,241 -71,550 -71,928l0 3831c0,378 24,687 71,928 47,241 132,427 254,558 122,132 294,220 518,266 223,46 518,69 883,69l1564 0z"/>
   <g>
    <path class="fil1" d="M88958 0c-1165,149 -2161,1203 -2724,2173 -675,1165 -900,2420 -793,3776 -1750,1159 -3582,2265 -4994,3851 -1454,1635 -2153,3940 -615,5838 1292,1592 3671,1779 5500,1421 59,1618 326,3371 -396,4866 -709,1472 -2591,2195 -4142,1842 -408,-161 -605,-339 -793,-739 784,18 1558,-265 2056,-889 506,-637 647,-1665 -22,-2266 -1791,-1618 -4642,1514 -3386,3492 1423,1606 4122,1444 5710,236 863,-656 1433,-1490 1628,-2585 192,-1072 71,-2205 64,-3292 -1,-295 -2,-588 -3,-880 1964,-612 3937,-1979 4034,-4274 44,-1043 -496,-2007 -1397,-2515 -831,-469 -1783,-453 -2685,-330l-30 -2174c1869,-1183 3843,-3054 3975,-5420 26,-425 -17,-770 -175,-1169 -160,-404 -406,-764 -812,-962zm-1368 11662l0 0c695,397 1034,1128 992,1918l-158 560 -230 511 -297 455 -370 398 -439 342c-358,197 -697,353 -1080,498l-27 -5024c555,-8 1111,67 1609,342zm-2210 -1803l0 0c-1444,498 -2720,1449 -3299,2917 -344,1535 546,2184 1852,2512 14,-40 24,-81 29,-122 15,-54 -5,-66 -48,-95 -887,-310 -1272,-1344 -766,-2151 487,-774 1377,-1308 2247,-1524l-46 5110c-1472,278 -2865,304 -4233,-442l-353 -263c-3144,-3138 2378,-6592 4646,-7903l-29 1963zm3534 -8371l0 0c111,1 219,28 313,87 83,65 119,124 143,225 43,769 -468,1395 -953,1925 -680,742 -1519,1480 -2441,1898 -111,-389 -70,-801 11,-1189 390,-1196 1499,-2993 2926,-2946z"/>
   </g>
   <path class="fil2" d="M27661 21101l-565 0 0 -2384 565 0 0 2384zm0 -2689l-565 0 0 -412 565 0 0 412zm1130 563l0 2126 -565 0 0 -2384 1518 0c166,0 303,13 410,39 107,26 193,68 258,127 65,59 109,135 133,228 24,93 36,205 36,337l0 1654 -565 0 0 -1671c0,-94 -6,-172 -19,-232 -13,-60 -36,-107 -69,-140 -33,-33 -80,-55 -141,-67 -61,-11 -141,-17 -241,-17l-753 0zm4425 1409c0,246 -67,427 -202,543 -135,116 -365,174 -690,174l-1224 0 0 -258 1113 0c78,0 147,-3 208,-9 61,-6 113,-22 155,-49 42,-27 74,-68 94,-122 20,-54 30,-130 30,-228 0,-83 -6,-150 -19,-200 -13,-50 -39,-89 -78,-116 -39,-27 -94,-45 -166,-54 -72,-9 -165,-13 -280,-13l-415 0c-137,0 -252,-12 -346,-37 -94,-24 -171,-63 -230,-116 -59,-53 -102,-122 -127,-208 -26,-86 -39,-190 -39,-314 0,-209 63,-372 188,-487 126,-116 343,-174 654,-174l1069 0 0 258 -931 0c-78,0 -145,4 -202,11 -57,7 -105,22 -144,45 -39,23 -68,59 -89,107 -20,49 -30,113 -30,193 0,80 6,145 19,193 13,49 36,87 69,114 33,27 80,45 141,54 61,9 139,13 235,13l388 0c159,0 292,11 399,32 107,21 194,58 260,110 66,52 114,121 144,208 30,87 44,197 44,329zm1728 -1409l-770 0 0 1520c0,137 25,230 75,277 50,47 147,71 291,71l249 0 0 258 -476 0c-133,0 -245,-14 -335,-43 -90,-29 -162,-69 -216,-120 -54,-52 -92,-112 -116,-183 -24,-70 -36,-147 -36,-230l0 -2435 565 0 0 627 770 0 0 258zm321 472c0,-132 12,-244 36,-337 24,-93 68,-169 133,-228 65,-59 150,-101 258,-127 107,-26 244,-39 410,-39l576 0 0 258 -377 0c-100,0 -180,6 -241,17 -61,11 -108,34 -141,67 -33,33 -56,79 -69,140 -13,60 -19,137 -19,232l0 1671 -565 0 0 -1654zm3495 1396l0 -2126 565 0 0 2384 -1490 0c-166,0 -303,-13 -410,-39 -107,-26 -193,-68 -258,-127 -65,-59 -109,-134 -133,-225 -24,-92 -36,-205 -36,-339l0 -1654 565 0 0 1671c0,94 6,172 19,232 13,60 36,107 69,140 33,33 80,55 141,67 61,11 141,17 241,17l726 0zm3279 -1868l0 2126 -565 0 0 -2126 -1030 0 0 2126 -565 0 0 -2384 2919 0c166,0 303,13 410,39 107,26 193,68 258,127 65,59 109,135 133,228 24,93 36,205 36,337l0 1654 -565 0 0 -1671c0,-94 -6,-172 -19,-232 -13,-60 -36,-107 -69,-140 -33,-33 -80,-55 -141,-67 -61,-11 -141,-17 -241,-17l-559 0zm3035 1130l0 -249 316 0c100,0 180,-6 241,-17 61,-11 108,-29 141,-54 33,-24 56,-57 69,-97 13,-40 19,-90 19,-150l0 -232c0,-63 -6,-116 -19,-159 -13,-43 -36,-77 -69,-103 -33,-26 -80,-44 -141,-54 -61,-10 -141,-15 -241,-15l-233 0c-100,0 -180,6 -241,17 -61,11 -108,34 -141,67 -33,33 -56,79 -69,140 -13,60 -19,137 -19,232l0 958c0,94 6,172 19,232 13,60 36,107 69,140 33,33 80,55 141,67 61,11 141,17 241,17l1047 0 0 258 -1246 0c-166,0 -303,-13 -410,-39 -107,-26 -193,-68 -258,-127 -65,-59 -109,-134 -133,-225 -24,-92 -36,-205 -36,-339l0 -923c0,-132 12,-244 36,-337 24,-93 68,-169 133,-228 65,-59 150,-101 258,-127 107,-26 244,-39 410,-39l631 0c166,0 303,12 410,37 107,24 193,60 258,107 65,47 109,106 133,176 24,70 36,151 36,243l0 262c0,92 -12,173 -36,243 -24,70 -68,129 -133,176 -65,47 -150,83 -258,107 -107,24 -244,37 -410,37l-515 0zm2337 -1130l0 2126 -565 0 0 -2384 1518 0c166,0 303,13 410,39 107,26 193,68 258,127 65,59 109,135 133,228 24,93 36,205 36,337l0 1654 -565 0 0 -1671c0,-94 -6,-172 -19,-232 -13,-60 -36,-107 -69,-140 -33,-33 -80,-55 -141,-67 -61,-11 -141,-17 -241,-17l-753 0zm3633 0l-770 0 0 1520c0,137 25,230 75,277 50,47 147,71 291,71l249 0 0 258 -476 0c-133,0 -245,-14 -335,-43 -90,-29 -162,-69 -216,-120 -54,-52 -92,-112 -116,-183 -24,-70 -36,-147 -36,-230l0 -2435 565 0 0 627 770 0 0 258zm1822 -258c166,0 303,13 410,39 107,26 193,68 258,127 65,59 109,135 133,228 24,93 36,205 36,337l0 923c0,135 -12,248 -36,339 -24,92 -68,167 -133,225 -65,59 -150,101 -258,127 -107,26 -244,39 -410,39l-742 0c-166,0 -303,-13 -410,-39 -107,-26 -193,-68 -258,-127 -65,-59 -109,-134 -133,-225 -24,-92 -36,-205 -36,-339l0 -923c0,-132 12,-244 36,-337 24,-93 68,-169 133,-228 65,-59 150,-101 258,-127 107,-26 244,-39 410,-39l742 0zm-1014 1671c0,94 6,172 19,232 13,60 36,107 69,140 33,33 80,55 141,67 61,11 141,17 241,17l343 0c100,0 180,-6 241,-17 61,-11 108,-34 141,-67 33,-33 56,-79 69,-140 13,-60 19,-137 19,-232l0 -958c0,-94 -6,-172 -19,-232 -13,-60 -36,-107 -69,-140 -33,-33 -80,-55 -141,-67 -61,-11 -141,-17 -241,-17l-343 0c-100,0 -180,6 -241,17 -61,11 -108,34 -141,67 -33,33 -56,79 -69,140 -13,60 -19,137 -19,232l0 958zm4464 -4c0,246 -67,427 -202,543 -135,116 -365,174 -690,174l-1224 0 0 -258 1113 0c78,0 147,-3 208,-9 61,-6 113,-22 155,-49 42,-27 74,-68 94,-122 20,-54 30,-130 30,-228 0,-83 -6,-150 -19,-200 -13,-50 -39,-89 -78,-116 -39,-27 -94,-45 -166,-54 -72,-9 -165,-13 -280,-13l-415 0c-137,0 -252,-12 -346,-37 -94,-24 -171,-63 -230,-116 -59,-53 -102,-122 -127,-208 -26,-86 -39,-190 -39,-314 0,-209 63,-372 188,-487 126,-116 343,-174 654,-174l1069 0 0 258 -931 0c-78,0 -145,4 -202,11 -57,7 -105,22 -144,45 -39,23 -68,59 -89,107 -20,49 -30,113 -30,193 0,80 6,145 19,193 13,49 36,87 69,114 33,27 80,45 141,54 61,9 139,13 235,13l388 0c159,0 292,11 399,32 107,21 194,58 260,110 66,52 114,121 144,208 30,87 44,197 44,329zm3883 -1409l0 2126 -565 0 0 -2126 -1030 0 0 2126 -565 0 0 -2384 2919 0c166,0 303,13 410,39 107,26 193,68 258,127 65,59 109,135 133,228 24,93 36,205 36,337l0 1654 -565 0 0 -1671c0,-94 -6,-172 -19,-232 -13,-60 -36,-107 -69,-140 -33,-33 -80,-55 -141,-67 -61,-11 -141,-17 -241,-17l-559 0zm3866 1868l0 -2126 565 0 0 2384 -1490 0c-166,0 -303,-13 -410,-39 -107,-26 -193,-68 -258,-127 -65,-59 -109,-134 -133,-225 -24,-92 -36,-205 -36,-339l0 -1654 565 0 0 1671c0,94 6,172 19,232 13,60 36,107 69,140 33,33 80,55 141,67 61,11 141,17 241,17l726 0zm3224 -460c0,246 -67,427 -202,543 -135,116 -365,174 -690,174l-1224 0 0 -258 1113 0c78,0 147,-3 208,-9 61,-6 113,-22 155,-49 42,-27 74,-68 94,-122 20,-54 30,-130 30,-228 0,-83 -6,-150 -19,-200 -13,-50 -39,-89 -78,-116 -39,-27 -94,-45 -166,-54 -72,-9 -165,-13 -280,-13l-415 0c-137,0 -252,-12 -346,-37 -94,-24 -171,-63 -230,-116 -59,-53 -102,-122 -127,-208 -26,-86 -39,-190 -39,-314 0,-209 63,-372 188,-487 126,-116 343,-174 654,-174l1069 0 0 258 -931 0c-78,0 -145,4 -202,11 -57,7 -105,22 -144,45 -39,23 -68,59 -89,107 -20,49 -30,113 -30,193 0,80 6,145 19,193 13,49 36,87 69,114 33,27 80,45 141,54 61,9 139,13 235,13l388 0c159,0 292,11 399,32 107,21 194,58 260,110 66,52 114,121 144,208 30,87 44,197 44,329zm991 717l-565 0 0 -2384 565 0 0 2384zm0 -2689l-565 0 0 -412 565 0 0 412zm1086 1976c0,94 6,172 19,232 13,60 36,107 69,140 33,33 80,55 141,67 61,11 141,17 241,17l875 0 0 258 -1075 0c-166,0 -303,-13 -410,-39 -107,-26 -193,-68 -258,-127 -65,-59 -109,-134 -133,-225 -24,-92 -36,-205 -36,-339l0 -923c0,-132 12,-244 36,-337 24,-93 68,-169 133,-228 65,-59 150,-101 258,-127 107,-26 244,-39 410,-39l1075 0 0 258 -875 0c-100,0 -180,6 -241,17 -61,11 -108,34 -141,67 -33,33 -56,79 -69,140 -13,60 -19,137 -19,232l0 958zm2947 -717l0 249 -238 0c-100,0 -180,6 -241,17 -61,11 -108,29 -141,54 -33,24 -56,57 -69,97 -13,40 -19,90 -19,150l0 275c0,66 6,120 19,161 13,42 36,75 69,101 33,26 80,44 141,54 61,10 141,15 241,15l626 0 0 -1413c0,-94 -6,-172 -19,-232 -13,-60 -36,-107 -69,-140 -33,-33 -80,-55 -141,-67 -61,-11 -141,-17 -241,-17l-798 0 0 -258 997 0c166,0 303,13 410,39 107,26 193,68 258,127 65,59 109,135 133,228 24,93 36,205 36,337l0 1654 -1390 0c-166,0 -303,-12 -410,-37 -107,-24 -193,-60 -258,-107 -65,-47 -109,-106 -133,-176 -24,-70 -36,-151 -36,-243l0 -305c0,-92 12,-173 36,-243 24,-70 68,-129 133,-176 65,-47 150,-83 258,-107 107,-24 244,-37 410,-37l438 0zm2060 1430l-565 0 0 -2384 565 0 0 2384zm0 -2689l-565 0 0 -412 565 0 0 412zm2670 1971c0,246 -67,427 -202,543 -135,116 -365,174 -690,174l-1224 0 0 -258 1113 0c78,0 147,-3 208,-9 61,-6 113,-22 155,-49 42,-27 74,-68 94,-122 20,-54 30,-130 30,-228 0,-83 -6,-150 -19,-200 -13,-50 -39,-89 -78,-116 -39,-27 -94,-45 -166,-54 -72,-9 -165,-13 -280,-13l-415 0c-137,0 -252,-12 -346,-37 -94,-24 -171,-63 -230,-116 -59,-53 -102,-122 -127,-208 -26,-86 -39,-190 -39,-314 0,-209 63,-372 188,-487 126,-116 343,-174 654,-174l1069 0 0 258 -931 0c-78,0 -145,4 -202,11 -57,7 -105,22 -144,45 -39,23 -68,59 -89,107 -20,49 -30,113 -30,193 0,80 6,145 19,193 13,49 36,87 69,114 33,27 80,45 141,54 61,9 139,13 235,13l388 0c159,0 292,11 399,32 107,21 194,58 260,110 66,52 114,121 144,208 30,87 44,197 44,329z"/>
  </g>
 </g>
</svg>
